<?xml version="1.0" standalone="no"?>
<!DOCTYPE svg PUBLIC "-//W3C//DTD SVG 20010904//EN"
 "http://www.w3.org/TR/2001/REC-SVG-20010904/DTD/svg10.dtd">
<svg version="1.0" xmlns="http://www.w3.org/2000/svg"
 width="642.000000pt" height="394.000000pt" viewBox="0 0 642.000000 394.000000"
 preserveAspectRatio="xMidYMid meet">

<g transform="translate(0.000000,394.000000) scale(0.100000,-0.100000)"
fill="#000000" stroke="none">
<path d="M3440 3205 c-36 -7 -95 -13 -132 -14 -37 -1 -87 -7 -110 -15 -24 -8
-68 -18 -98 -22 -30 -4 -64 -13 -75 -20 -11 -8 -31 -14 -45 -14 -14 0 -37 -6
-51 -14 -14 -7 -39 -16 -55 -20 -16 -4 -45 -14 -64 -23 -19 -9 -55 -25 -80
-36 -25 -11 -52 -24 -60 -28 -8 -5 -26 -14 -40 -19 -14 -6 -32 -15 -40 -20 -8
-6 -22 -13 -30 -17 -8 -4 -37 -23 -65 -42 -27 -19 -68 -47 -90 -62 -56 -38
-141 -122 -149 -146 -4 -12 -13 -27 -21 -33 -10 -9 -15 -32 -15 -76 0 -52 4
-68 20 -81 11 -10 20 -23 20 -30 0 -7 7 -13 15 -13 9 0 18 -6 21 -14 3 -8 18
-18 34 -21 16 -3 31 -13 34 -21 3 -8 16 -14 30 -14 14 0 31 -7 40 -15 8 -8 30
-18 48 -21 18 -3 47 -12 63 -19 17 -7 55 -16 85 -20 30 -4 63 -12 73 -17 11
-5 58 -14 105 -19 48 -5 121 -13 162 -19 140 -19 441 -9 482 16 4 3 17 2 28
-1 14 -5 20 -15 20 -37 0 -34 -13 -51 -173 -222 -56 -59 -102 -115 -102 -123
0 -13 16 -15 98 -14 106 2 127 6 127 25 0 12 66 115 143 224 100 141 112 162
155 263 l20 46 -242 7 c-132 3 -263 11 -291 16 -27 6 -79 13 -115 16 -36 3
-85 12 -110 19 -25 8 -76 18 -115 24 -88 12 -171 29 -210 43 -16 6 -58 14 -91
19 -34 4 -88 17 -120 28 -54 18 -59 22 -62 52 -3 23 2 37 15 46 17 13 40 31
113 91 15 12 33 22 39 22 6 0 11 5 11 10 0 6 10 15 23 20 12 6 40 21 62 34 64
38 143 76 158 76 8 0 20 7 27 15 7 8 22 15 34 15 11 0 33 6 48 14 15 8 42 17
60 20 18 4 56 13 83 21 65 18 204 35 288 35 227 0 459 -86 602 -225 34 -33
119 -147 137 -185 64 -133 83 -264 62 -430 -15 -120 -35 -179 -113 -340 -44
-90 -54 -108 -83 -152 -21 -32 -23 -64 -5 -75 33 -20 127 -165 127 -195 0 -5
12 -48 26 -94 l26 -84 48 0 c42 0 51 4 76 34 49 57 64 80 64 92 0 7 6 19 13
26 7 7 18 24 25 38 6 14 16 32 22 40 5 8 14 26 20 40 5 14 14 33 20 43 5 9 15
25 20 35 6 9 15 28 20 42 6 14 15 33 20 42 10 18 25 58 62 163 20 58 37 128
59 245 20 105 -2 268 -56 418 -52 144 -194 335 -325 437 -82 64 -287 165 -334
165 -15 0 -37 5 -48 11 -11 6 -82 17 -157 25 -75 7 -149 15 -166 17 -16 2 -59
-2 -95 -8z"/>
<path d="M2030 2738 c-8 -13 -20 -34 -27 -48 -7 -14 -22 -38 -32 -55 -11 -16
-34 -58 -51 -92 -18 -35 -36 -63 -41 -63 -5 0 -9 -4 -9 -9 0 -14 -18 -52 -40
-86 -11 -16 -25 -41 -31 -55 -6 -14 -15 -32 -20 -40 -5 -8 -12 -22 -15 -30 -3
-8 -14 -32 -24 -52 -11 -20 -20 -46 -20 -56 0 -11 -7 -25 -15 -32 -8 -7 -15
-25 -15 -40 0 -15 -9 -39 -20 -53 -14 -17 -20 -40 -20 -74 0 -28 -6 -58 -15
-69 -21 -27 -21 -357 0 -394 8 -14 14 -37 15 -53 0 -15 9 -44 20 -64 11 -21
20 -43 20 -49 0 -6 7 -17 15 -24 8 -7 15 -20 15 -30 0 -9 9 -27 20 -40 11 -13
20 -27 20 -32 0 -4 8 -16 18 -26 9 -11 25 -30 34 -43 53 -75 116 -142 173
-184 22 -17 46 -36 53 -42 7 -7 20 -13 28 -13 8 0 14 -4 14 -10 0 -5 11 -12
25 -16 13 -3 29 -12 35 -19 6 -8 26 -17 43 -21 17 -3 41 -12 52 -19 11 -7 36
-16 55 -20 19 -4 41 -12 48 -17 12 -11 42 -15 245 -39 86 -10 133 -10 235 0
215 20 266 27 287 38 11 6 40 13 65 17 121 19 416 139 550 225 30 19 57 38 60
41 3 3 18 14 35 24 51 33 126 109 147 149 l19 39 -28 36 c-15 20 -28 41 -28
45 0 4 -7 12 -15 17 -12 8 -11 10 6 10 12 0 24 -7 28 -15 3 -8 12 -15 19 -15
8 0 20 -7 27 -15 17 -20 30 -3 30 38 1 134 -290 266 -655 298 -66 5 -149 15
-185 21 -70 11 -149 8 -327 -12 -62 -7 -119 -10 -128 -7 -41 16 -5 68 176 255
66 67 117 128 113 134 -4 7 -41 8 -108 4 -55 -3 -104 -6 -108 -6 -4 0 -26 -33
-49 -72 -23 -40 -64 -101 -91 -135 -26 -35 -48 -66 -48 -69 0 -4 -7 -16 -17
-26 -19 -21 -26 -33 -82 -143 -23 -45 -41 -86 -41 -92 0 -7 61 -12 178 -16
160 -5 221 -11 457 -49 88 -14 187 -32 245 -47 25 -6 90 -20 145 -31 55 -12
120 -28 145 -35 25 -8 63 -17 85 -21 46 -7 85 -29 85 -47 0 -26 -123 -126
-265 -214 -35 -22 -203 -103 -213 -103 -6 0 -23 -6 -39 -14 -40 -20 -163 -56
-193 -57 -14 0 -52 -6 -85 -14 -79 -19 -264 -19 -335 0 -30 8 -67 15 -82 15
-15 0 -44 7 -65 16 -75 33 -148 68 -153 75 -3 3 -15 9 -27 13 -38 12 -204 185
-226 236 -4 8 -20 38 -36 65 -16 28 -30 64 -30 80 -1 17 -8 43 -16 59 -17 33
-22 265 -5 282 5 5 14 38 18 73 5 35 14 66 20 70 6 4 14 26 18 49 3 23 13 47
20 53 8 6 14 19 15 28 0 9 13 39 29 66 16 28 36 64 45 80 29 56 43 78 56 85 9
6 -3 25 -39 66 -29 32 -52 62 -52 67 0 5 -9 20 -20 34 -11 14 -20 35 -20 47 0
12 -6 31 -14 42 -8 11 -17 42 -21 69 -4 28 -11 64 -16 80 -5 17 -11 56 -14 88
-4 31 -10 57 -13 57 -4 0 -14 -10 -22 -22z"/>
</g>
</svg>
